<svg width="955" height="712" viewBox="0 0 955 712" fill="none" xmlns="http://www.w3.org/2000/svg">
<path d="M955 625.334H0V625.811H955V625.334Z" fill="#E6E6E6"/>
<path d="M238.406 654.232H175.147V654.71H238.406V654.232Z" fill="#E6E6E6"/>
<path d="M155.13 654.232H118.477V654.71H155.13V654.232Z" fill="#E6E6E6"/>
<path d="M402.151 661.261H365.498V661.739H402.151V661.261Z" fill="#E6E6E6"/>
<path d="M593.265 671.919H510.772V672.396H593.265V671.919Z" fill="#E6E6E6"/>
<path d="M493.773 671.919H481.683V672.396H493.773V671.919Z" fill="#E6E6E6"/>
<path d="M865.899 661.261H686.97V661.739H865.899V661.261Z" fill="#E6E6E6"/>
<path d="M452.67 540.148H83.8681C80.9789 540.143 78.2098 538.992 76.1687 536.947C74.1275 534.902 72.9811 532.131 72.9811 529.242V10.8106C73.0063 7.93801 74.1638 5.19134 76.2022 3.1672C78.2407 1.14306 80.9954 0.0049209 83.8681 0H452.67C455.562 0 458.337 1.14903 460.382 3.19432C462.427 5.23961 463.576 8.01362 463.576 10.9061V529.242C463.576 532.134 462.427 534.908 460.382 536.954C458.337 538.999 455.562 540.148 452.67 540.148V540.148ZM83.8681 0.382001C81.1056 0.387061 78.4579 1.48801 76.5063 3.44321C74.5547 5.3984 73.4586 8.04807 73.4586 10.8106V529.242C73.4586 532.004 74.5547 534.654 76.5063 536.609C78.4579 538.564 81.1056 539.665 83.8681 539.67H452.67C455.434 539.665 458.084 538.565 460.039 536.61C461.993 534.656 463.094 532.006 463.099 529.242V10.8106C463.094 8.04631 461.993 5.39669 460.039 3.44204C458.084 1.48739 455.434 0.38705 452.67 0.382001H83.8681Z" fill="#E6E6E6"/>
<path d="M865.822 540.148H497.001C494.11 540.143 491.339 538.992 489.295 536.948C487.251 534.904 486.1 532.133 486.095 529.242V10.8106C486.125 7.93627 487.287 5.18962 489.328 3.166C491.37 1.14239 494.127 0.00486723 497.001 0H865.822C868.691 0.00994059 871.441 1.1503 873.476 3.1739C875.51 5.1975 876.665 7.94131 876.69 10.8106V529.242C876.69 532.128 875.546 534.896 873.509 536.94C871.472 538.984 868.708 540.138 865.822 540.148V540.148ZM497.001 0.382001C494.237 0.38705 491.587 1.48739 489.633 3.44204C487.678 5.39669 486.578 8.04631 486.572 10.8106V529.242C486.578 532.006 487.678 534.656 489.633 536.61C491.587 538.565 494.237 539.665 497.001 539.67H865.822C868.586 539.665 871.236 538.565 873.191 536.61C875.145 534.656 876.246 532.006 876.251 529.242V10.8106C876.246 8.04631 875.145 5.39669 873.191 3.44204C871.236 1.48739 868.586 0.38705 865.822 0.382001H497.001Z" fill="#E6E6E6"/>
<path d="M510.734 462.182H468.733V628.791H510.734V462.182Z" fill="#E0E0E0"/>
<path d="M502.75 628.791H510.734V606.1H494.384L502.75 628.791Z" fill="#FAFAFA"/>
<path d="M326.686 462.182H284.686V628.791H326.686V462.182Z" fill="#E0E0E0"/>
<path d="M510.734 462.182H319.734V614.867H510.734V462.182Z" fill="#FAFAFA"/>
<path d="M503.801 469.688V510.085H326.61V469.688H503.743H503.801ZM504.488 468.943H325.922V510.81H504.546V468.943H504.488Z" fill="#E0E0E0"/>
<path d="M327.699 628.791H319.734V606.1H336.065L327.699 628.791Z" fill="#FAFAFA"/>
<path d="M411.013 489.877C411.013 490.712 411.261 491.528 411.724 492.222C412.188 492.916 412.847 493.457 413.619 493.777C414.39 494.096 415.239 494.18 416.058 494.017C416.876 493.854 417.628 493.452 418.219 492.862C418.809 492.271 419.211 491.519 419.374 490.7C419.537 489.882 419.453 489.033 419.134 488.262C418.814 487.49 418.273 486.831 417.579 486.367C416.885 485.903 416.069 485.656 415.234 485.656C414.115 485.656 413.041 486.101 412.249 486.892C411.458 487.684 411.013 488.757 411.013 489.877V489.877Z" fill="#E6E6E6"/>
<path d="M503.801 518.317V558.713H326.61V518.317H503.743H503.801ZM504.488 517.591H325.922V559.458H504.546V517.61L504.488 517.591Z" fill="#E0E0E0"/>
<path d="M411.013 538.62C411.013 539.455 411.261 540.271 411.724 540.965C412.188 541.659 412.847 542.2 413.619 542.52C414.39 542.839 415.239 542.923 416.058 542.76C416.876 542.597 417.628 542.195 418.219 541.605C418.809 541.014 419.211 540.262 419.374 539.444C419.537 538.625 419.453 537.776 419.134 537.005C418.814 536.233 418.273 535.574 417.579 535.11C416.885 534.646 416.069 534.399 415.234 534.399C414.115 534.399 413.041 534.844 412.249 535.635C411.458 536.427 411.013 537.501 411.013 538.62Z" fill="#E6E6E6"/>
<path d="M503.801 566.964V607.38H326.61V566.964H503.743H503.801ZM504.488 566.219H325.922V608.106H504.546V566.219H504.488Z" fill="#E0E0E0"/>
<path d="M411.013 587.172C411.017 588.006 411.267 588.821 411.734 589.512C412.2 590.204 412.86 590.742 413.632 591.058C414.403 591.375 415.252 591.456 416.069 591.291C416.887 591.126 417.637 590.722 418.225 590.131C418.814 589.54 419.214 588.788 419.375 587.97C419.537 587.151 419.452 586.304 419.132 585.533C418.812 584.763 418.271 584.105 417.577 583.642C416.883 583.179 416.068 582.932 415.234 582.932C414.678 582.932 414.128 583.042 413.614 583.255C413.101 583.469 412.635 583.781 412.242 584.175C411.85 584.569 411.54 585.037 411.329 585.551C411.118 586.065 411.01 586.616 411.013 587.172V587.172Z" fill="#E6E6E6"/>
<path d="M301.035 365.421H259.034V628.81H301.035V365.421Z" fill="#E0E0E0"/>
<path d="M293.051 628.791H301.035V606.1H284.705L293.051 628.791Z" fill="#FAFAFA"/>
<path d="M144.071 365.421H102.07V628.81H144.071V365.421Z" fill="#E0E0E0"/>
<path d="M301.035 365.421H137.1V614.886H301.035V365.421Z" fill="#FAFAFA"/>
<path d="M293.968 372.45V428.929H144.167V372.45H293.968V372.45ZM294.847 371.591H143.25V429.75H294.808V371.61L294.847 371.591Z" fill="#E0E0E0"/>
<path d="M293.968 435.824V585.625H222.61V435.824H293.968ZM294.847 434.945H221.751V586.504H294.847V434.945Z" fill="#E0E0E0"/>
<path d="M215.524 435.824V585.625H144.167V435.824H215.524ZM216.384 434.945H143.25V586.504H216.346V434.945H216.384Z" fill="#E0E0E0"/>
<path d="M145.084 628.791H137.1V606.1H153.449L145.084 628.791Z" fill="#FAFAFA"/>
<path d="M214.837 400.718C214.833 401.557 215.078 402.379 215.542 403.079C216.006 403.779 216.667 404.325 217.441 404.649C218.216 404.973 219.069 405.06 219.892 404.898C220.716 404.737 221.474 404.334 222.068 403.742C222.663 403.15 223.069 402.394 223.234 401.571C223.399 400.748 223.317 399.895 222.996 399.119C222.676 398.343 222.132 397.68 221.435 397.213C220.737 396.746 219.916 396.497 219.077 396.497C217.956 396.497 216.88 396.941 216.085 397.732C215.291 398.523 214.842 399.597 214.837 400.718Z" fill="#E6E6E6"/>
<path d="M229.964 507.162C229.964 508.002 230.213 508.822 230.68 509.52C231.147 510.218 231.81 510.761 232.586 511.082C233.362 511.402 234.215 511.485 235.038 511.32C235.862 511.154 236.617 510.749 237.209 510.154C237.801 509.559 238.204 508.802 238.365 507.978C238.527 507.154 238.44 506.301 238.116 505.526C237.792 504.752 237.246 504.091 236.546 503.627C235.846 503.164 235.025 502.918 234.185 502.922C233.629 502.922 233.079 503.032 232.565 503.245C232.052 503.459 231.586 503.771 231.194 504.165C230.801 504.559 230.491 505.027 230.28 505.541C230.069 506.056 229.961 506.606 229.964 507.162V507.162Z" fill="#E6E6E6"/>
<path d="M199.729 507.162C199.732 507.996 199.983 508.811 200.449 509.502C200.915 510.194 201.576 510.732 202.348 511.048C203.119 511.365 203.967 511.446 204.785 511.281C205.603 511.116 206.353 510.712 206.941 510.121C207.53 509.53 207.93 508.778 208.091 507.96C208.252 507.141 208.168 506.294 207.848 505.523C207.528 504.753 206.987 504.095 206.293 503.632C205.599 503.169 204.784 502.922 203.95 502.922C203.394 502.922 202.843 503.032 202.33 503.245C201.817 503.459 201.35 503.771 200.958 504.165C200.566 504.559 200.256 505.027 200.045 505.541C199.834 506.055 199.726 506.606 199.729 507.162V507.162Z" fill="#E6E6E6"/>
<path d="M194.954 291.982H177.248C178.88 300.571 179.907 309.263 180.323 317.996C180.323 327.546 166.839 365.421 186.053 365.421C205.268 365.421 191.783 327.641 191.783 317.996C192.231 309.261 193.29 300.568 194.954 291.982V291.982Z" fill="#E0E0E0"/>
<path d="M127.588 330.717V342.177C127.608 348.32 130.058 354.206 134.402 358.55C138.746 362.894 144.632 365.344 150.775 365.364H162.235C168.379 365.344 174.265 362.894 178.609 358.55C182.953 354.206 185.403 348.32 185.423 342.177V330.717H127.588Z" fill="#F5F5F5"/>
<path d="M373.73 437.887C373.73 451.257 388.685 462.182 406.964 462.182H423.466C441.745 462.182 456.7 451.257 456.7 437.887H373.73Z" fill="#E0E0E0"/>
<path d="M811.005 418.29C800.997 426.465 787.168 441.42 774.524 462.468C766.082 476.488 761.001 491.118 758.767 510.562C758.767 488.597 758.9 465.009 758.977 442.738C761.517 437.008 767.323 423.791 771.487 413.362C785.373 378.543 790.587 369.967 803.06 339.942C819.734 299.832 836.809 252.349 831.92 256.15C821.949 263.886 783.749 335.415 779.624 345.653C768.378 372.974 761.427 401.87 759.015 431.316C759.015 410.306 759.168 391.206 759.244 376.385C759.512 328.042 760.333 312.438 760.734 307.625C762.281 305.18 764.095 302.334 765.165 300.806C774.142 287.818 777.599 276.778 786.041 257.411C798.036 230.002 808.35 181.316 805.332 183.761C792.765 193.999 782.871 215.964 769.845 243.983C756.818 272.003 760.543 288.104 757.964 312.018C757.43 316.716 757.009 334.441 756.704 358.984C753.342 332.817 747.001 315.589 735.445 299.927C721.235 280.655 707.483 267.648 697.398 260.849C687.314 254.049 714.818 301.379 727.958 321.969C739.667 340.381 750.458 356.597 756.608 372.584C756.284 405.875 756.131 448.01 756.131 487.184C753.113 469.344 748.185 450.111 741.615 435.232C733.707 417.354 721.56 389.926 711.876 380.625C709.565 378.39 721.999 431.736 729.983 445.909C737.967 460.081 743.83 473.47 748.854 481.511C750.019 483.421 753.915 490.622 756.131 494.785C756.131 542.669 756.398 584.918 756.818 599.301H758.881C758.748 595.595 758.709 571.224 758.767 538.983C763.752 521.487 775.135 501.509 784.533 483.287C794.77 463.557 821.013 410.172 811.005 418.29Z" fill="#E0E0E0"/>
<path d="M787.76 628.791H727.901L723.374 570.116H792.287L787.76 628.791Z" fill="#F0F0F0"/>
<path d="M796.737 576.954H718.905L716.689 557.147H798.972L796.737 576.954Z" fill="#F5F5F5"/>
<path d="M237.337 39.155H130.281V156.716H237.337V39.155Z" fill="#E0E0E0"/>
<path d="M248.93 39.155H138.341V156.716H248.93V39.155Z" fill="#F5F5F5"/>
<path d="M239.667 147.452V48.4185L147.605 48.4185V147.452H239.667Z" fill="white"/>
<path d="M217.339 123.424V72.4082H169.914V123.424H217.339Z" fill="#F5F5F5"/>
<path d="M783.195 52.8496H683.742V162.063H783.195V52.8496Z" fill="#E0E0E0"/>
<path d="M793.968 52.8496H691.248V162.063H793.968V52.8496Z" fill="#F5F5F5"/>
<path d="M785.373 153.449V61.4639L699.862 61.4639V153.449H785.373Z" fill="white"/>
<path d="M742.608 134.139C757.344 134.139 769.291 122.193 769.291 107.457C769.291 92.7202 757.344 80.7739 742.608 80.7739C727.872 80.7739 715.925 92.7202 715.925 107.457C715.925 122.193 727.872 134.139 742.608 134.139Z" fill="#F5F5F5"/>
<path d="M348.556 109.252H269.138V196.463H348.556V109.252Z" fill="#E0E0E0"/>
<path d="M357.151 109.252H275.116V196.463H357.151V109.252Z" fill="#F5F5F5"/>
<path d="M350.275 189.587V116.128H281.992V189.587H350.275Z" fill="white"/>
<path d="M316.143 134.273L297.463 166.628H334.823L316.143 134.273Z" fill="#F5F5F5"/>
<path d="M477.5 711.59C682.028 711.59 847.83 701.909 847.83 689.968C847.83 678.027 682.028 668.347 477.5 668.347C272.972 668.347 107.17 678.027 107.17 689.968C107.17 701.909 272.972 711.59 477.5 711.59Z" fill="#F5F5F5"/>
<path d="M667.067 207.101L648.12 199.461C648.12 199.461 623.118 245.053 615.956 247.364C606.215 250.496 586.045 259.206 574.089 260.734C572.465 262.644 569.81 268.584 570.059 270.742C586.122 276.109 621.418 268.985 628.982 263.37C646.191 250.63 667.067 207.101 667.067 207.101Z" fill="#E58A7B"/>
<path d="M672.893 196.73C676.426 209.775 657.288 236.019 657.288 236.019L632.21 221.961C632.21 221.961 636.909 211.169 642.639 200.187C651.826 182.443 668.863 181.851 672.893 196.73Z" fill="#407BFF"/>
<path opacity="0.2" d="M672.893 196.73C676.426 209.775 657.288 236.019 657.288 236.019L632.21 221.961C632.21 221.961 636.909 211.169 642.639 200.187C651.826 182.443 668.863 181.851 672.893 196.73Z" fill="black"/>
<path opacity="0.2" d="M642.161 227.576L652.036 233.115L653.774 202.804C648.025 207.216 643.976 220.509 642.161 227.576Z" fill="black"/>
<path d="M656.391 186.912C656.391 186.912 636.87 230.346 648.254 311.215H725.17C726.392 299.411 722.343 241.806 736.993 186.187C728.555 184.538 720.018 183.447 711.437 182.921C700.553 182.29 689.641 182.29 678.757 182.921C671.211 183.687 663.735 185.021 656.391 186.912V186.912Z" fill="#407BFF"/>
<path opacity="0.2" d="M656.391 186.912C656.391 186.912 636.87 230.346 648.254 311.215H725.17C726.392 299.411 722.343 241.806 736.993 186.187C728.555 184.538 720.018 183.447 711.437 182.921C700.553 182.29 689.641 182.29 678.757 182.921C671.211 183.687 663.735 185.021 656.391 186.912V186.912Z" fill="black"/>
<g style="mix-blend-mode:multiply">
<path d="M638.551 691.687C638.437 693.75 667.602 695.412 703.682 695.412C739.762 695.412 769.138 693.75 769.252 691.687C769.367 689.625 740.22 687.982 704.121 687.982C668.022 687.982 638.685 689.644 638.551 691.687Z" fill="#E8ECF1"/>
</g>
<path d="M689.893 637.487L676.251 642.768L688.002 673.125L701.644 667.844L689.893 637.487Z" fill="#E58A7B"/>
<path d="M750.725 676.999H736.343L731.072 643.708H745.454L750.725 676.999Z" fill="#E58A7B"/>
<path d="M735.35 675.338H751.509C751.789 675.339 752.06 675.439 752.273 675.621C752.486 675.803 752.628 676.054 752.674 676.331L754.756 689.109C754.799 689.429 754.774 689.756 754.68 690.065C754.587 690.375 754.428 690.661 754.214 690.904C754 691.147 753.737 691.341 753.441 691.473C753.146 691.604 752.825 691.671 752.502 691.668C746.867 691.573 744.155 691.229 737.05 691.229C732.676 691.229 723.68 691.687 717.606 691.687C711.532 691.687 711.131 685.728 713.633 685.174C724.864 682.748 729.219 679.444 732.962 676.235C733.623 675.656 734.471 675.336 735.35 675.338V675.338Z" fill="#263238"/>
<path d="M687.6 670.41L702.88 665.94C703.153 665.864 703.443 665.882 703.704 665.994C703.965 666.105 704.179 666.302 704.312 666.552L710.042 678.012C710.176 678.302 710.244 678.619 710.242 678.938C710.24 679.258 710.168 679.574 710.032 679.863C709.895 680.152 709.698 680.408 709.452 680.613C709.206 680.818 708.919 680.966 708.61 681.049C703.052 682.577 699.327 683.512 692.375 685.537C687.581 686.931 682.691 689.204 677.955 690.713C674.669 691.764 666.953 691.802 662.961 691.802C657.059 691.802 655.741 685.575 658.281 685.289C664.68 684.582 665.539 684.907 669.073 683.13C674.855 680.603 680.095 676.984 684.506 672.473C685.338 671.525 686.405 670.813 687.6 670.41V670.41Z" fill="#263238"/>
<path d="M576.495 260.658L560.68 254.03L554.167 271.564C560.65 272.551 567.244 272.551 573.726 271.564L576.495 260.658Z" fill="#E58A7B"/>
<path d="M548.915 253.572L548.495 265.223L554.167 271.526L560.681 253.992L548.915 253.572Z" fill="#E58A7B"/>
<path d="M691.765 640.065L678.08 645.348L684.141 661.046L697.825 655.763L691.765 640.065Z" fill="#CF6F64"/>
<path d="M745.454 643.708H731.072L733.803 660.879H748.185L745.454 643.708Z" fill="#CF6F64"/>
<path opacity="0.2" d="M645.809 289.346C646.096 292.803 646.42 296.337 646.841 299.966L704.026 281.4C712.956 278.754 720.718 273.141 726.029 265.49C726.258 260.39 726.545 255.023 726.984 249.427C727.175 246.715 727.404 243.926 727.653 241.099C727.901 238.273 728.245 235.14 728.608 232.122L645.809 289.346Z" fill="black"/>
<path d="M664.489 226.698L662.579 226.469C663.706 216.919 670.83 209.393 678.337 209.584V211.494C671.766 211.36 665.501 218.141 664.489 226.698Z" fill="white"/>
<path d="M674.669 244.327H674.345V242.417C680.915 242.665 687.084 235.808 688.097 227.271L690.007 227.5C688.994 236.84 682.099 244.327 674.669 244.327Z" fill="white"/>
<path d="M710.367 146.115C707.674 156.639 704.504 175.911 711.437 182.921C711.437 182.921 706.585 193.598 687.046 193.598C669.188 193.598 678.757 182.921 678.757 182.921C690.637 180.132 690.847 171.461 689.281 163.248L710.367 146.115Z" fill="#E58A7B"/>
<path d="M701.772 153.105L689.3 163.248C689.687 165.135 689.91 167.052 689.968 168.978C693.616 172.607 700.932 163.419 701.677 158.721C702.055 156.871 702.088 154.967 701.772 153.105Z" fill="#CF6F64"/>
<path d="M667.851 145.981C668.718 147.485 669.887 148.794 671.284 149.826C672.681 150.858 674.275 151.591 675.968 151.979C680.552 152.991 682.844 148.77 681.584 144.53C680.457 140.71 676.694 135.572 672.034 136.45C671.035 136.656 670.101 137.098 669.308 137.739C668.516 138.38 667.889 139.202 667.479 140.135C667.069 141.068 666.889 142.086 666.954 143.103C667.019 144.12 667.326 145.107 667.851 145.981V145.981Z" fill="#CF6F64"/>
<path d="M675.433 112.308C668.29 115.574 665.769 143.957 674.746 148.159C683.723 152.361 688.956 106.1 675.433 112.308Z" fill="#263238"/>
<path d="M712.545 130.281C710.826 144.53 710.635 152.915 702.995 160.211C700.627 162.632 697.637 164.352 694.353 165.181C691.07 166.009 687.622 165.914 684.389 164.907C681.156 163.899 678.264 162.017 676.033 159.47C673.803 156.922 672.319 153.807 671.747 150.47C669.436 137.673 672.626 116.529 686.912 110.856C689.914 109.532 693.215 109.035 696.474 109.417C699.733 109.798 702.83 111.044 705.445 113.026C708.059 115.007 710.097 117.652 711.345 120.686C712.593 123.72 713.008 127.033 712.545 130.281V130.281Z" fill="#E58A7B"/>
<path d="M689.071 119.681C699.652 116.987 707.426 115.154 704.637 123.959C700.951 135.725 696.52 147.108 702.46 147.624C706.089 147.949 722.133 141.149 720.089 134.254C718.313 128.256 725.819 126.614 727.156 123.577C732.103 112.575 717.95 114.027 720.471 107.342C722.992 100.657 709.011 89.8845 701.371 95.2516C688.937 103.923 667.602 103.789 678.814 89.5216C686.855 79.3413 672.511 81.4232 672.511 81.4232C672.511 81.4232 681.182 86.5611 666.59 94.5067C651.157 102.987 665.31 125.773 689.071 119.681Z" fill="#263238"/>
<path d="M718.16 145.981C716.071 149.004 712.933 151.142 709.355 151.979C704.637 152.991 702.823 148.77 704.599 144.53C706.184 140.71 710.539 135.572 715.047 136.45C719.554 137.329 720.586 142.238 718.16 145.981Z" fill="#E58A7B"/>
<path d="M648.254 311.215C648.254 311.215 635.342 426.77 634.33 470.624C633.299 516.235 678.088 658.549 678.088 658.549L701.008 648.999C701.008 648.999 674.268 518.966 678.088 474.177C682.137 425.338 698.869 311.292 698.869 311.292L648.254 311.215Z" fill="#407BFF"/>
<path opacity="0.2" d="M680.342 342.94C670.047 364.294 676.98 406.524 682.558 431.545C684.678 413.878 687.199 394.701 689.586 376.958C689.357 349.683 687.237 328.615 680.342 342.94Z" fill="black"/>
<path d="M699.996 641.435C700.111 641.435 702.708 648.732 702.708 648.732L676.274 659.848L672.11 652.093L699.996 641.435Z" fill="#407BFF"/>
<path d="M675.548 311.215C675.548 311.215 685.423 421.117 691.955 462.277C699.136 507.372 727.29 657.556 727.29 657.556H753.629C753.629 657.556 737.852 511.02 734.873 466.365C731.626 417.927 725.17 311.215 725.17 311.215H675.548Z" fill="#407BFF"/>
<path d="M754.03 650.699C754.144 650.699 754.908 658.052 754.908 658.052H725.953L723.89 649.61L754.03 650.699Z" fill="#407BFF"/>
<path opacity="0.2" d="M743.945 641.989C743.885 641.99 743.827 641.969 743.782 641.931C743.736 641.892 743.706 641.838 743.697 641.779C743.544 640.442 729.314 508.079 726.64 467.969C723.737 424.459 717.893 327.947 717.835 326.973C717.833 326.941 717.837 326.909 717.847 326.879C717.857 326.849 717.874 326.822 717.895 326.798C717.917 326.775 717.943 326.756 717.972 326.744C718.001 326.731 718.033 326.725 718.065 326.725V326.725C718.127 326.724 718.188 326.748 718.234 326.79C718.28 326.833 718.308 326.891 718.313 326.954C718.313 327.928 724.215 424.364 727.118 467.95C729.792 508.06 744.021 640.328 744.155 641.76C744.16 641.792 744.159 641.824 744.151 641.855C744.144 641.886 744.129 641.915 744.109 641.94C744.09 641.966 744.065 641.986 744.036 642.001C744.008 642.016 743.977 642.025 743.945 642.027V641.989Z" fill="black"/>
<path d="M690.694 134.254C690.694 135.419 689.968 136.355 689.204 136.355C688.44 136.355 687.887 135.419 687.963 134.254C688.039 133.089 688.689 132.153 689.453 132.153C690.217 132.153 690.771 133.108 690.694 134.254Z" fill="#263238"/>
<path d="M677.592 134.254C677.592 135.419 676.847 136.355 676.102 136.355C675.357 136.355 674.784 135.419 674.841 134.254C674.899 133.089 675.586 132.153 676.35 132.153C677.114 132.153 677.668 133.108 677.592 134.254Z" fill="#263238"/>
<path d="M681.717 134.846C680.123 138.404 678.068 141.737 675.605 144.759C677.515 146.669 681.087 145.79 681.087 145.79L681.717 134.846Z" fill="#DF5753"/>
<path d="M682.061 150.661C682.017 150.661 681.973 150.652 681.932 150.634C681.891 150.617 681.855 150.591 681.824 150.559C681.794 150.527 681.77 150.489 681.755 150.447C681.74 150.405 681.734 150.361 681.736 150.317C681.741 150.224 681.782 150.137 681.849 150.073C681.917 150.009 682.006 149.973 682.099 149.973C683.56 149.983 685.004 149.666 686.327 149.045C687.649 148.423 688.815 147.513 689.739 146.382C689.805 146.325 689.89 146.293 689.978 146.293C690.066 146.293 690.15 146.325 690.217 146.382C690.278 146.446 690.313 146.532 690.313 146.621C690.313 146.71 690.278 146.796 690.217 146.86C689.227 148.062 687.981 149.027 686.57 149.685C685.159 150.343 683.618 150.676 682.061 150.661V150.661Z" fill="#263238"/>
<path d="M693.024 130.739C692.933 130.786 692.831 130.811 692.728 130.811C692.625 130.811 692.524 130.786 692.432 130.739C691.718 130.278 690.905 129.99 690.059 129.901C689.212 129.811 688.357 129.922 687.562 130.224C687.484 130.263 687.4 130.285 687.313 130.291C687.227 130.297 687.14 130.285 687.058 130.256C686.976 130.228 686.901 130.183 686.836 130.125C686.772 130.067 686.72 129.997 686.683 129.918C686.612 129.748 686.611 129.557 686.678 129.386C686.746 129.215 686.878 129.077 687.046 129.001C688.045 128.594 689.127 128.433 690.201 128.532C691.275 128.632 692.309 128.99 693.215 129.574C693.289 129.624 693.351 129.688 693.4 129.762C693.448 129.836 693.481 129.919 693.497 130.006C693.513 130.093 693.512 130.183 693.493 130.269C693.474 130.356 693.438 130.438 693.387 130.51C693.291 130.62 693.165 130.699 693.024 130.739V130.739Z" fill="#263238"/>
<path d="M672.53 126.919C672.428 126.895 672.336 126.842 672.263 126.767C672.199 126.704 672.149 126.63 672.114 126.548C672.08 126.466 672.062 126.378 672.062 126.289C672.062 126.2 672.08 126.112 672.114 126.03C672.149 125.948 672.199 125.874 672.263 125.812C672.995 124.99 673.906 124.35 674.927 123.939C675.947 123.528 677.049 123.358 678.145 123.443C678.233 123.457 678.317 123.488 678.393 123.536C678.468 123.583 678.533 123.645 678.583 123.719C678.633 123.792 678.667 123.875 678.684 123.962C678.701 124.05 678.7 124.139 678.68 124.226C678.639 124.403 678.535 124.559 678.387 124.664C678.24 124.77 678.059 124.818 677.878 124.799V124.799C677.01 124.745 676.141 124.888 675.337 125.219C674.533 125.55 673.815 126.06 673.237 126.709C673.15 126.806 673.038 126.877 672.913 126.914C672.788 126.951 672.656 126.953 672.53 126.919V126.919Z" fill="#263238"/>
<path d="M744.384 204.981L724.52 199.69C724.52 199.69 705.038 247.651 698.143 250.764C688.784 255.042 665.081 269.864 654.996 276.874C654.442 279.261 654.882 285.583 656.142 287.321C673.332 284.189 706.242 271.526 713.118 265.089C728.799 250.401 744.384 204.981 744.384 204.981Z" fill="#E58A7B"/>
<path d="M730.518 677.859C729.548 677.936 728.583 677.672 727.786 677.114C727.54 676.892 727.356 676.61 727.253 676.295C727.149 675.98 727.129 675.644 727.194 675.319C727.206 675.116 727.273 674.92 727.387 674.752C727.502 674.583 727.659 674.449 727.844 674.364C729.448 673.542 733.937 676.388 734.452 676.713C734.509 676.748 734.553 676.8 734.577 676.862C734.601 676.924 734.604 676.993 734.586 677.057C734.57 677.123 734.536 677.185 734.49 677.235C734.443 677.285 734.384 677.322 734.319 677.343C733.073 677.649 731.799 677.822 730.518 677.859ZM728.608 674.879C728.463 674.847 728.313 674.847 728.168 674.879C728.095 674.916 728.034 674.974 727.994 675.046C727.953 675.117 727.934 675.198 727.939 675.28C727.888 675.503 727.897 675.734 727.964 675.952C728.031 676.17 728.154 676.367 728.321 676.522C729.066 677.19 730.938 677.267 733.402 676.789C731.935 675.823 730.283 675.173 728.55 674.879H728.608Z" fill="#407BFF"/>
<path d="M734.223 677.343C734.173 677.359 734.12 677.359 734.07 677.343C732.638 676.541 729.945 673.39 730.346 671.785C730.406 671.531 730.549 671.304 730.754 671.141C730.958 670.978 731.211 670.889 731.473 670.887C731.729 670.853 731.99 670.875 732.237 670.95C732.484 671.026 732.712 671.155 732.905 671.327C734.491 672.683 734.586 676.847 734.586 677.057C734.595 677.12 734.583 677.184 734.552 677.239C734.521 677.294 734.473 677.338 734.414 677.362C734.35 677.375 734.283 677.369 734.223 677.343ZM731.664 671.518H731.53C731.091 671.518 731.033 671.766 731.014 671.862C730.785 672.797 732.485 675.185 733.898 676.312C733.892 674.698 733.392 673.125 732.466 671.804C732.244 671.611 731.958 671.509 731.664 671.518V671.518Z" fill="#407BFF"/>
<path d="M679.807 675.471C678.638 675.879 677.366 675.879 676.197 675.471C675.932 675.328 675.707 675.119 675.543 674.866C675.38 674.612 675.283 674.321 675.261 674.02C675.237 673.831 675.261 673.639 675.332 673.462C675.402 673.285 675.516 673.129 675.662 673.007C677.19 671.632 683.436 673.008 684.143 673.275C684.21 673.292 684.269 673.332 684.311 673.387C684.353 673.443 684.374 673.511 684.372 673.581C684.375 673.652 684.357 673.723 684.319 673.784C684.282 673.845 684.227 673.894 684.162 673.924C682.756 674.559 681.299 675.077 679.807 675.471V675.471ZM676.694 673.199C676.475 673.242 676.272 673.341 676.102 673.485C676.041 673.531 675.994 673.592 675.967 673.663C675.94 673.734 675.934 673.812 675.949 673.886C675.961 674.087 676.024 674.281 676.131 674.451C676.237 674.621 676.385 674.762 676.56 674.86C677.572 675.395 679.922 674.975 682.959 673.695C680.913 673.179 678.795 673.011 676.694 673.199V673.199Z" fill="#407BFF"/>
<path d="M684.105 673.924H683.952C682.042 673.581 678.222 671.384 678.107 669.742C678.107 669.36 678.279 668.825 679.196 668.519C679.506 668.409 679.834 668.362 680.163 668.382C680.491 668.402 680.812 668.487 681.106 668.634C683.169 669.646 684.257 673.313 684.315 673.485C684.328 673.543 684.327 673.603 684.31 673.66C684.293 673.717 684.262 673.769 684.219 673.81C684.191 673.857 684.152 673.896 684.105 673.924V673.924ZM679.578 669.092H679.387C678.795 669.302 678.795 669.551 678.795 669.627C678.795 670.62 681.564 672.435 683.494 673.046C683.049 671.512 682.109 670.168 680.82 669.226C680.436 669.031 679.994 668.983 679.578 669.092Z" fill="#407BFF"/>
<path d="M656.62 275.747L636.699 284.915L634.387 290.645L641.741 295.591C641.741 295.591 655.493 294.102 659.408 285.258L656.62 275.747Z" fill="#E58A7B"/>
<path d="M657.46 287.646C657.015 283.818 655.751 280.131 653.755 276.835L656.906 274.467C659.277 278.264 660.789 282.534 661.337 286.977L657.46 287.646Z" fill="#263238"/>
<path d="M660.86 278.459C661.281 279.121 661.488 279.897 661.453 280.681C661.417 281.466 661.141 282.22 660.661 282.841C660.182 283.463 659.523 283.922 658.773 284.155C658.024 284.389 657.221 284.386 656.473 284.147C655.726 283.908 655.07 283.445 654.595 282.82C654.12 282.195 653.849 281.438 653.819 280.654C653.789 279.87 654.002 279.095 654.428 278.436C654.854 277.776 655.472 277.264 656.2 276.969C657.016 276.553 657.964 276.476 658.836 276.755C659.709 277.034 660.436 277.646 660.86 278.459V278.459Z" fill="#263238"/>
<path d="M623.233 292.325L625.888 294.999L643.765 287.359L636.699 284.915L623.233 292.325Z" fill="#E58A7B"/>
<path opacity="0.2" d="M699.996 641.435C700.111 641.435 702.708 648.732 702.708 648.732L676.274 659.848L672.11 652.093L699.996 641.435Z" fill="black"/>
<path opacity="0.2" d="M754.03 650.699C754.144 650.699 754.908 658.052 754.908 658.052H725.953L723.89 649.61L754.03 650.699Z" fill="black"/>
<path d="M749.56 199.48C754.813 216.422 734.28 239.59 734.28 239.59L705.917 228.016C709.279 218.224 713.155 208.616 717.53 199.232C726.239 180.457 744.251 182.386 749.56 199.48Z" fill="#407BFF"/>
<path opacity="0.2" d="M749.56 199.48C754.813 216.422 734.28 239.59 734.28 239.59L705.917 228.016C709.279 218.224 713.155 208.616 717.53 199.232C726.239 180.457 744.251 182.386 749.56 199.48Z" fill="black"/>
<path d="M467.721 29.7388H455.516V31.7061H467.721V29.7388Z" fill="#407BFF"/>
<path d="M625.712 107.603L624.235 140.383L626.201 140.472L627.678 107.691L625.712 107.603Z" fill="#407BFF"/>
<path d="M621.915 38.563H396.535L375.563 507.888H600.943L621.915 38.563Z" fill="#407BFF"/>
<path opacity="0.56" d="M615.192 45.0188H389.812L368.84 514.344H594.22L615.192 45.0188Z" fill="#FAFAFA"/>
<path opacity="0.07" d="M608.469 51.4556H383.089L362.098 520.781H587.478L608.469 51.4556Z" fill="#407BFF"/>
<path d="M582.817 256.15H390.442L388.838 292.058H581.213L582.817 256.15Z" fill="white"/>
<path d="M496.237 229.945H391.607L390.901 246.008H495.53L496.237 229.945Z" fill="#407BFF"/>
<path d="M578.482 353.063H386.106L384.502 388.971H576.877L578.482 353.063Z" fill="white"/>
<path opacity="0.47" d="M543.204 437.467H413.84L411.911 480.499H541.275L543.204 437.467Z" fill="#407BFF"/>
<path d="M534.552 487.184H405.187C405.131 487.198 405.072 487.198 405.015 487.184C404.997 487.128 404.997 487.068 405.015 487.012L406.925 443.96C406.925 443.931 406.931 443.902 406.943 443.875C406.955 443.849 406.972 443.824 406.994 443.805C407.015 443.785 407.041 443.77 407.068 443.761C407.096 443.751 407.126 443.748 407.155 443.75H536.519C536.543 443.739 536.569 443.732 536.595 443.732C536.622 443.732 536.648 443.739 536.672 443.75C536.685 443.774 536.692 443.8 536.692 443.827C536.692 443.854 536.685 443.88 536.672 443.903L534.8 487.05C534.777 487.095 534.741 487.132 534.697 487.156C534.652 487.179 534.602 487.189 534.552 487.184V487.184ZM405.417 486.725H534.322L536.232 444.132H407.327L405.417 486.725Z" fill="white"/>
<path d="M473.642 326.858H387.272L386.565 342.941H472.916L473.642 326.858Z" fill="#407BFF"/>
<path d="M540.74 140.156C540.246 150.606 536.53 160.648 530.101 168.901C525.343 175.136 519.218 180.197 512.199 183.697C505.18 187.197 497.452 189.042 489.609 189.09C483.271 189.138 476.991 187.889 471.154 185.418C465.317 182.947 460.048 179.307 455.671 174.723C451.295 170.138 447.903 164.707 445.705 158.762C443.507 152.817 442.549 146.485 442.891 140.156C443.563 127.023 449.226 114.642 458.723 105.546C468.22 96.4505 480.833 91.3263 493.983 91.2217C500.326 91.1626 506.614 92.4047 512.457 94.8714C518.301 97.3381 523.577 100.977 527.959 105.563C532.341 110.149 535.736 115.585 537.935 121.535C540.133 127.485 541.088 133.822 540.74 140.156V140.156Z" fill="white"/>
<path d="M545.343 101.459C545.219 104.238 544.23 106.909 542.516 109.099C541.248 110.755 539.618 112.099 537.751 113.03C535.885 113.96 533.83 114.451 531.744 114.466C529.723 114.479 527.73 113.996 525.939 113.06C524.148 112.125 522.613 110.765 521.468 109.099C519.953 106.849 519.203 104.17 519.329 101.459C519.514 97.9723 521.022 94.6872 523.545 92.2738C526.068 89.8603 529.418 88.5004 532.909 88.4712C534.594 88.4558 536.263 88.7856 537.816 89.44C539.368 90.0945 540.77 91.0599 541.934 92.2767C543.099 93.4935 544.003 94.936 544.589 96.5152C545.175 98.0945 545.432 99.777 545.343 101.459V101.459Z" fill="#407BFF"/>
<path d="M411.166 274.104C411.074 275.643 410.402 277.09 409.286 278.154C408.169 279.217 406.691 279.818 405.149 279.834C404.405 279.843 403.666 279.699 402.98 279.411C402.293 279.124 401.673 278.698 401.157 278.161C400.642 277.624 400.242 276.987 399.982 276.289C399.723 275.591 399.609 274.848 399.648 274.104C399.731 272.562 400.4 271.11 401.519 270.044C402.637 268.979 404.12 268.382 405.665 268.374C406.408 268.368 407.146 268.514 407.831 268.803C408.516 269.091 409.135 269.517 409.65 270.054C410.165 270.59 410.565 271.226 410.826 271.923C411.086 272.619 411.202 273.361 411.166 274.104V274.104Z" fill="#263238"/>
<path d="M436.913 274.104C436.825 275.645 436.155 277.095 435.037 278.159C433.92 279.223 432.439 279.822 430.896 279.834C430.153 279.84 429.417 279.695 428.733 279.406C428.048 279.117 427.43 278.691 426.917 278.154C426.403 277.617 426.005 276.981 425.747 276.284C425.488 275.588 425.375 274.846 425.414 274.104C425.497 272.565 426.163 271.116 427.278 270.051C428.392 268.986 429.871 268.387 431.412 268.374C432.156 268.365 432.894 268.509 433.581 268.797C434.268 269.085 434.888 269.51 435.403 270.047C435.919 270.585 436.319 271.222 436.579 271.919C436.838 272.617 436.952 273.361 436.913 274.104V274.104Z" fill="#263238"/>
<path d="M462.678 274.104C462.591 275.645 461.921 277.095 460.803 278.159C459.686 279.223 458.205 279.822 456.662 279.834C455.918 279.84 455.181 279.694 454.496 279.406C453.811 279.117 453.191 278.691 452.676 278.155C452.161 277.618 451.761 276.982 451.501 276.286C451.24 275.589 451.125 274.847 451.161 274.104C451.248 272.563 451.919 271.114 453.036 270.05C454.154 268.985 455.634 268.386 457.178 268.374C457.922 268.365 458.66 268.509 459.347 268.797C460.033 269.085 460.654 269.51 461.169 270.047C461.685 270.585 462.085 271.222 462.344 271.919C462.604 272.617 462.718 273.361 462.678 274.104V274.104Z" fill="#263238"/>
<path d="M406.83 371.018C406.738 372.557 406.066 374.004 404.95 375.067C403.833 376.13 402.355 376.731 400.814 376.748C400.07 376.754 399.333 376.608 398.648 376.319C397.962 376.03 397.343 375.605 396.828 375.068C396.313 374.532 395.913 373.896 395.652 373.199C395.392 372.503 395.276 371.76 395.313 371.018C395.4 369.477 396.07 368.027 397.188 366.963C398.305 365.899 399.786 365.3 401.329 365.288C402.073 365.281 402.81 365.427 403.495 365.716C404.181 366.005 404.8 366.43 405.315 366.967C405.83 367.503 406.23 368.139 406.49 368.836C406.751 369.532 406.866 370.275 406.83 371.018Z" fill="#263238"/>
<path d="M432.577 371.018C432.49 372.555 431.822 374.002 430.709 375.066C429.595 376.129 428.119 376.731 426.579 376.748C425.835 376.756 425.097 376.613 424.41 376.325C423.723 376.037 423.103 375.611 422.588 375.074C422.072 374.537 421.672 373.9 421.413 373.202C421.153 372.505 421.039 371.761 421.079 371.018C421.166 369.477 421.836 368.027 422.954 366.963C424.071 365.899 425.552 365.3 427.095 365.288C427.838 365.281 428.574 365.427 429.258 365.716C429.943 366.005 430.561 366.431 431.074 366.968C431.588 367.505 431.986 368.141 432.244 368.837C432.503 369.534 432.616 370.276 432.577 371.018V371.018Z" fill="#263238"/>
<path d="M458.4 371.017C458.313 372.558 457.642 374.008 456.525 375.072C455.407 376.136 453.927 376.735 452.384 376.747C451.641 376.751 450.905 376.603 450.221 376.313C449.537 376.024 448.919 375.598 448.404 375.062C447.89 374.526 447.49 373.891 447.228 373.196C446.967 372.501 446.849 371.76 446.883 371.017C446.974 369.478 447.646 368.031 448.763 366.968C449.879 365.905 451.357 365.304 452.899 365.287C453.644 365.279 454.382 365.423 455.069 365.71C455.755 365.998 456.375 366.424 456.891 366.961C457.407 367.498 457.806 368.135 458.066 368.833C458.326 369.53 458.439 370.274 458.4 371.017V371.017Z" fill="#263238"/>
<path d="M484.109 371.018C484.017 372.557 483.345 374.004 482.228 375.067C481.112 376.13 479.634 376.731 478.092 376.748C477.349 376.751 476.613 376.603 475.929 376.313C475.245 376.024 474.627 375.598 474.113 375.062C473.598 374.526 473.198 373.891 472.937 373.196C472.675 372.501 472.558 371.76 472.591 371.018C472.683 369.478 473.355 368.031 474.471 366.968C475.588 365.905 477.066 365.304 478.608 365.288C479.351 365.281 480.088 365.427 480.774 365.716C481.459 366.005 482.078 366.43 482.593 366.967C483.108 367.503 483.508 368.139 483.769 368.836C484.029 369.532 484.145 370.275 484.109 371.018V371.018Z" fill="#263238"/>
<path d="M509.97 371.018C509.878 372.557 509.206 374.004 508.09 375.067C506.973 376.13 505.495 376.731 503.954 376.748C503.209 376.756 502.471 376.612 501.784 376.325C501.098 376.037 500.477 375.611 499.962 375.074C499.446 374.537 499.046 373.9 498.787 373.202C498.527 372.505 498.413 371.761 498.453 371.018C498.54 369.477 499.21 368.027 500.328 366.963C501.445 365.899 502.926 365.3 504.469 365.288C505.213 365.281 505.95 365.427 506.635 365.716C507.32 366.005 507.94 366.43 508.455 366.967C508.97 367.503 509.37 368.139 509.63 368.836C509.891 369.532 510.006 370.275 509.97 371.018Z" fill="#263238"/>
<path d="M506.061 137.607C514.055 129.789 514.48 117.259 507.008 109.619C499.537 101.979 487 102.123 479.006 109.941C471.011 117.758 470.587 130.289 478.058 137.929C485.529 145.569 498.067 145.425 506.061 137.607Z" fill="#407BFF"/>
<path d="M530.101 168.901C525.343 175.136 519.218 180.197 512.199 183.697C505.18 187.196 497.452 189.041 489.609 189.09C482.004 189.155 474.499 187.347 467.758 183.826C461.016 180.305 455.244 175.18 450.951 168.901C460.234 159.657 474.922 153.621 491.195 153.621C507.468 153.621 521.64 159.657 530.101 168.901Z" fill="#407BFF"/>
<path opacity="0.1" d="M506.061 137.607C514.055 129.789 514.48 117.259 507.008 109.619C499.537 101.979 487 102.123 479.006 109.941C471.011 117.758 470.587 130.289 478.058 137.929C485.529 145.569 498.067 145.425 506.061 137.607Z" fill="white"/>
<path opacity="0.1" d="M530.101 168.901C525.343 175.136 519.218 180.197 512.199 183.697C505.18 187.196 497.452 189.041 489.609 189.09C482.004 189.155 474.499 187.347 467.758 183.826C461.016 180.305 455.244 175.18 450.951 168.901C460.234 159.657 474.922 153.621 491.195 153.621C507.468 153.621 521.64 159.657 530.101 168.901Z" fill="white"/>
<path d="M249.083 300.71C247.269 304.683 245.359 309.057 243.697 313.297C242.035 317.538 240.335 321.911 238.865 326.266C235.862 334.848 233.575 343.665 232.027 352.624L231.607 355.432C231.567 355.914 231.612 356.398 231.74 356.864C232.191 358.447 232.901 359.945 233.841 361.296C236.294 364.792 239.14 367.997 242.322 370.846C245.677 373.966 249.196 376.906 252.865 379.651C256.532 382.478 260.39 385.228 264.191 387.825L260.62 394.53C251.544 390.575 242.929 385.637 234.93 379.804C230.663 376.691 226.811 373.045 223.47 368.955C221.49 366.52 219.945 363.76 218.905 360.799C218.3 358.949 217.991 357.015 217.988 355.069C217.988 354.611 217.988 353.942 217.988 353.617V352.681L218.179 350.771C219.274 340.82 221.367 331.005 224.425 321.472C225.915 316.774 227.5 312.094 229.315 307.529C231.129 302.964 233.001 298.495 235.312 293.854L249.083 300.71Z" fill="#E58A7B"/>
<path d="M261.498 386.641L275.002 379.803L271.506 394.625C271.506 394.625 262.243 397.223 257.945 392.715L261.498 386.641Z" fill="#E58A7B"/>
<path d="M287.36 382.229L283.769 394.491L271.507 394.625L275.002 379.803L287.36 382.229Z" fill="#E58A7B"/>
<path d="M306.421 229.2C307.144 231.847 308.149 234.408 309.42 236.84C309.049 237.261 308.57 237.574 308.036 237.745C307.501 237.917 306.93 237.941 306.383 237.814L306.421 229.2Z" fill="#DF5753"/>
<path d="M306.02 229.315C306.811 229.315 307.453 228.331 307.453 227.118C307.453 225.905 306.811 224.922 306.02 224.922C305.229 224.922 304.588 225.905 304.588 227.118C304.588 228.331 305.229 229.315 306.02 229.315Z" fill="#263238"/>
<path d="M305.6 224.998L308.503 224.177C308.503 224.177 307.09 226.431 305.6 224.998Z" fill="#263238"/>
<path d="M269.119 243.219C270.857 252.101 272.595 268.393 266.369 274.333C266.369 274.333 268.813 283.349 285.335 283.349C303.499 283.349 294.006 274.333 294.006 274.333C284.093 271.965 284.342 264.611 286.08 257.697L269.119 243.219Z" fill="#E58A7B"/>
<path d="M264.287 222.973C265.204 237.814 265.28 244.117 272.767 251.738C284.055 263.198 302.086 258.843 305.619 244.098C308.809 230.728 306.784 208.725 292.249 202.823C289.059 201.508 285.585 201.03 282.158 201.432C278.731 201.834 275.463 203.104 272.664 205.121C269.864 207.139 267.626 209.837 266.16 212.961C264.694 216.085 264.049 219.531 264.287 222.973V222.973Z" fill="#E58A7B"/>
<path d="M265.757 206.28C258.308 208.992 248.376 206.968 252.273 229.945C256.398 254.278 250.057 262.281 250.057 262.281C250.057 262.281 278.306 268.298 307.147 261.918C307.147 261.918 298.342 246.524 300.806 235.178C303.957 220.853 301.474 215.563 301.474 215.563C301.474 215.563 276.224 202.46 265.757 206.28Z" fill="#263238"/>
<path d="M297.272 230.709C297.28 233.531 298.088 236.292 299.603 238.674C301.627 241.768 304.015 240.584 304.607 237.298C305.142 234.414 304.74 229.315 302.162 227.328C299.583 225.342 297.311 227.29 297.272 230.709Z" fill="#E58A7B"/>
<path d="M259.282 208.782C257.143 202.766 267.343 193.502 288.926 197.322C310.509 201.142 311.445 219.115 311.445 219.115L307.09 213.92L307.281 219.383L285.106 223.642L259.282 208.782Z" fill="#263238"/>
<path d="M261.116 275.346C260.989 274.473 261.207 273.586 261.724 272.873C262.242 272.159 263.017 271.676 263.886 271.526C270.609 270.418 285.889 268.164 293.567 269.234C299.297 270.036 300.787 273.359 301.035 276.09C301.074 276.569 301.01 277.05 300.848 277.501C300.685 277.953 300.428 278.364 300.093 278.708C299.758 279.052 299.354 279.32 298.907 279.494C298.46 279.669 297.981 279.746 297.502 279.719L264.306 278.23C263.523 278.19 262.778 277.882 262.197 277.356C261.616 276.83 261.234 276.12 261.116 275.346V275.346Z" fill="#407BFF"/>
<path opacity="0.6" d="M261.116 275.346C260.989 274.473 261.207 273.586 261.724 272.873C262.242 272.159 263.017 271.676 263.886 271.526C270.609 270.418 285.889 268.164 293.567 269.234C299.297 270.036 300.787 273.359 301.035 276.09C301.074 276.569 301.01 277.05 300.848 277.501C300.685 277.953 300.428 278.364 300.093 278.708C299.758 279.052 299.354 279.32 298.907 279.494C298.46 279.669 297.981 279.746 297.502 279.719L264.306 278.23C263.523 278.19 262.778 277.882 262.197 277.356C261.616 276.83 261.234 276.12 261.116 275.346V275.346Z" fill="black"/>
<path d="M280.312 609.023L292.631 617.58L313.24 589.636L300.921 581.099L280.312 609.023Z" fill="#E58A7B"/>
<path d="M251.585 608.469L264.592 615.88L282.833 586.332L269.826 578.921L251.585 608.469Z" fill="#E58A7B"/>
<path d="M313.221 589.636L302.601 604.038L290.282 595.5L300.901 581.099L313.221 589.636Z" fill="#CF6F64"/>
<path d="M269.807 578.921L282.833 586.351L273.436 601.574L260.409 594.144L269.807 578.921Z" fill="#CF6F64"/>
<path d="M290.702 368.63C290.702 368.63 338.796 429.234 329.761 487.203C322.484 534.017 280.273 597.41 280.273 597.41L260.429 587.554C274.416 559.526 286.353 530.519 296.146 500.764C299.165 491.526 300.046 481.723 298.723 472.094C297.399 462.466 293.906 453.264 288.506 445.183C264.134 409.6 225.094 430.782 251.356 368.63H290.702Z" fill="#407BFF"/>
<path opacity="0.6" d="M290.702 368.63C290.702 368.63 338.796 429.234 329.761 487.203C322.484 534.017 280.273 597.41 280.273 597.41L260.429 587.554C274.416 559.526 286.353 530.519 296.146 500.764C299.165 491.526 300.046 481.723 298.723 472.094C297.399 462.466 293.906 453.264 288.506 445.183C264.134 409.6 225.094 430.782 251.356 368.63H290.702Z" fill="black"/>
<path opacity="0.4" d="M314.291 407.556L307.3 400.604C307.3 401.157 320.842 484.758 324.643 508.251C326.886 501.388 328.603 494.365 329.781 487.241C334.25 458.801 324.91 429.75 314.291 407.556Z" fill="black"/>
<path d="M312.17 368.63C312.17 368.63 370.082 444.801 371.724 490.469C373.08 528.669 308.694 602.682 308.694 602.682L289.976 590.572C289.976 590.572 327.661 538.009 337.153 495.072C333.486 452.517 255.94 368.63 255.94 368.63H312.17Z" fill="#407BFF"/>
<path opacity="0.6" d="M312.17 368.63C312.17 368.63 370.082 444.801 371.724 490.469C373.08 528.669 308.694 602.682 308.694 602.682L289.976 590.572C289.976 590.572 327.661 538.009 337.153 495.072C333.486 452.517 255.94 368.63 255.94 368.63H312.17Z" fill="black"/>
<path d="M240.526 277.733C234.338 279.204 228.398 301.704 228.398 301.704L252.597 317.862C252.597 317.862 260.658 300.061 257.831 292.268C254.909 284.151 248.3 275.881 240.526 277.733Z" fill="#407BFF"/>
<path opacity="0.2" d="M245.263 292.23L243.582 311.846L252.578 317.881C255.062 312.289 256.901 306.432 258.06 300.424L245.263 292.23Z" fill="black"/>
<path d="M319.333 278.173C319.333 278.173 326.476 280.675 312.17 368.611H251.318C252.349 343.781 252.368 328.501 240.526 277.733C249.047 275.977 257.684 274.841 266.369 274.333C275.569 273.674 284.806 273.674 294.006 274.333C305.886 275.422 319.333 278.173 319.333 278.173Z" fill="#407BFF"/>
<path d="M325.521 292.23C326.896 296.05 328.348 300.157 329.876 304.11C331.404 308.064 332.856 312.132 334.403 316.143L339.082 328.138L340.266 331.137L340.878 332.627L341.164 333.371C341.164 333.505 341.164 333.505 341.164 333.486C340.815 332.994 340.358 332.589 339.827 332.302C339.072 331.857 338.22 331.602 337.344 331.557C336.617 331.534 335.893 331.671 335.224 331.958C334.345 332.359 334.346 332.531 334.365 332.512C334.523 332.385 334.665 332.237 334.785 332.073C335.842 330.685 336.757 329.194 337.516 327.622C338.414 325.865 339.273 323.993 340.133 322.102C341.814 318.282 343.361 314.329 344.908 310.337C346.455 306.345 347.926 302.315 349.358 298.247L353.713 286.061L361.066 287.971C359.615 296.68 357.743 305.161 355.489 313.794C354.4 318.091 353.121 322.351 351.669 326.648C350.943 328.807 350.141 330.946 349.224 333.142C348.269 335.526 347.092 337.815 345.71 339.98C345.202 340.709 344.64 341.398 344.029 342.043C343.054 343.096 341.87 343.935 340.553 344.507C339.384 345.009 338.118 345.243 336.848 345.194C335.424 345.141 334.037 344.727 332.818 343.991C331.379 343.093 330.184 341.853 329.341 340.381C329.055 339.885 328.807 339.388 328.635 339.025L328.272 338.299L327.546 336.809L326.094 333.849C324.184 329.876 322.274 325.865 320.613 321.835C318.951 317.805 317.194 313.718 315.551 309.611C313.909 305.505 312.438 301.398 311.044 296.967L325.521 292.23Z" fill="#E58A7B"/>
<path d="M319.333 278.172C326.648 279.911 334.88 301.532 334.88 301.532L313.125 320.04C313.125 320.04 299.049 296.47 301.895 288.696C304.855 280.598 309.783 275.9 319.333 278.172Z" fill="#407BFF"/>
<path d="M357.17 279.223L364.81 272.844L370.12 281.114L366.204 288.009C366.204 288.009 359.978 293.739 354.477 290.817C353.604 288.854 353.394 286.661 353.88 284.568C354.366 282.476 355.521 280.6 357.17 279.223V279.223Z" fill="#E58A7B"/>
<path d="M378.6 272.863L378.027 274.944L365.937 276.969L364.753 272.844L378.6 272.863Z" fill="#E58A7B"/>
<path d="M310.184 603.656L288.372 589.56L292.287 582.76L316.793 597.83L310.184 603.656Z" fill="#407BFF"/>
<path d="M273.13 614.886C271.216 614.653 269.377 614 267.744 612.976C267.676 612.953 267.618 612.909 267.577 612.851C267.535 612.793 267.513 612.723 267.513 612.652C267.513 612.58 267.535 612.511 267.577 612.452C267.618 612.394 267.676 612.35 267.744 612.327C268.336 612.136 273.474 610.551 274.964 611.773C275.131 611.912 275.258 612.094 275.332 612.298C275.406 612.503 275.424 612.724 275.384 612.938C275.357 613.282 275.243 613.613 275.053 613.901C274.862 614.188 274.601 614.422 274.295 614.581C273.937 614.776 273.537 614.881 273.13 614.886V614.886ZM268.833 612.785C271.22 614.008 273.13 614.447 274.047 613.989C274.246 613.878 274.414 613.718 274.535 613.524C274.655 613.33 274.724 613.109 274.734 612.881C274.734 612.575 274.734 612.442 274.563 612.365C273.76 611.716 270.895 612.212 268.794 612.785H268.833Z" fill="#263238"/>
<path d="M267.878 613.11C267.777 613.108 267.681 613.067 267.61 612.995C267.582 612.942 267.567 612.883 267.567 612.823C267.567 612.763 267.582 612.704 267.61 612.652C267.61 612.48 268.852 608.335 270.8 607.399C271.049 607.286 271.319 607.227 271.592 607.227C271.866 607.227 272.136 607.286 272.385 607.399C272.653 607.484 272.886 607.656 273.045 607.888C273.204 608.12 273.281 608.398 273.264 608.679C273.13 610.398 269.635 612.766 268.03 613.167L267.878 613.11ZM271.583 607.896C271.397 607.901 271.215 607.947 271.048 608.029C269.864 608.602 268.89 610.837 268.412 612.193C270.093 611.486 272.404 609.615 272.481 608.564C272.481 608.392 272.481 608.182 272.041 607.991C271.898 607.914 271.743 607.863 271.583 607.838V607.896Z" fill="#263238"/>
<path d="M300.386 623.138C298.227 623.138 295.229 620.368 293.586 618.668C293.544 618.61 293.522 618.54 293.522 618.468C293.522 618.396 293.544 618.326 293.586 618.267C293.624 618.206 293.677 618.155 293.741 618.122C293.805 618.088 293.877 618.072 293.949 618.076C294.713 618.076 301.341 619.069 302.277 620.941C302.376 621.109 302.428 621.3 302.428 621.495C302.428 621.69 302.376 621.881 302.277 622.049C302.136 622.34 301.924 622.591 301.66 622.779C301.396 622.966 301.089 623.083 300.768 623.118L300.386 623.138ZM294.847 618.936C297.253 621.266 299.373 622.565 300.577 622.412C300.787 622.384 300.988 622.305 301.161 622.182C301.335 622.059 301.475 621.895 301.57 621.705C301.613 621.64 301.635 621.563 301.635 621.485C301.635 621.407 301.613 621.331 301.57 621.266C301.073 620.234 297.54 619.356 294.847 618.936Z" fill="#263238"/>
<path d="M295.057 618.84C294.628 618.852 294.199 618.82 293.777 618.745C293.718 618.736 293.662 618.712 293.616 618.675C293.569 618.638 293.532 618.59 293.51 618.535C293.481 618.478 293.466 618.416 293.466 618.353C293.466 618.29 293.481 618.228 293.51 618.172C293.624 618.038 296.203 614.925 298.648 614.715C299.34 614.661 300.025 614.88 300.558 615.326C301.303 615.975 301.264 616.548 301.073 616.911C300.596 618.21 297.291 618.84 295.057 618.84ZM294.56 618.133C296.699 618.248 300.118 617.541 300.558 616.605C300.558 616.605 300.71 616.3 300.214 615.88C300.016 615.708 299.785 615.578 299.536 615.5C299.286 615.421 299.023 615.394 298.762 615.421C297.115 615.881 295.649 616.834 294.56 618.153V618.133Z" fill="#263238"/>
<path d="M268.393 611.047L252.196 606.463C251.917 606.379 251.617 606.4 251.352 606.523C251.088 606.647 250.878 606.863 250.764 607.132L245.301 619.413C245.173 619.728 245.113 620.066 245.125 620.405C245.136 620.745 245.22 621.078 245.37 621.383C245.519 621.688 245.732 621.957 245.993 622.174C246.255 622.391 246.559 622.55 246.887 622.641C252.617 624.131 255.367 624.551 262.491 626.595C266.884 627.817 273.149 630.09 279.204 631.809C285.258 633.528 287.283 627.626 284.934 626.365C274.314 620.75 273.474 616.815 270.571 612.613C270.051 611.852 269.28 611.298 268.393 611.047V611.047Z" fill="#407BFF"/>
<path d="M294.025 616.433L280.197 606.883C279.963 606.713 279.674 606.634 279.385 606.662C279.096 606.69 278.828 606.823 278.631 607.036L269.463 616.892C269.239 617.147 269.073 617.446 268.974 617.77C268.875 618.094 268.847 618.436 268.89 618.772C268.933 619.108 269.048 619.431 269.225 619.719C269.403 620.007 269.64 620.255 269.921 620.444C274.792 623.71 277.313 625.028 283.406 629.249C287.226 631.847 294.617 637.615 299.774 641.206C304.931 644.797 308.771 639.869 306.937 637.921C298.724 629.154 296.929 623.653 295.572 618.668C295.337 617.764 294.789 616.972 294.025 616.433Z" fill="#407BFF"/>
<path d="M282.814 598.67L257.888 586.275L260.467 579.513L287.092 592.578L282.814 598.67Z" fill="#407BFF"/>
<path d="M250.401 365.039L248.3 370.54C248.09 370.96 248.587 371.4 249.293 371.4H312.476C313.03 371.4 313.488 371.132 313.526 370.788L314.061 365.326C314.061 364.963 313.622 364.638 313.03 364.638H251.394C251.209 364.621 251.022 364.648 250.849 364.718C250.676 364.788 250.522 364.898 250.401 365.039V365.039Z" fill="#407BFF"/>
<path opacity="0.4" d="M250.401 365.039L248.3 370.54C248.09 370.96 248.587 371.4 249.293 371.4H312.476C313.03 371.4 313.488 371.132 313.526 370.788L314.061 365.326C314.061 364.963 313.622 364.638 313.03 364.638H251.394C251.209 364.621 251.022 364.648 250.849 364.718C250.676 364.788 250.522 364.898 250.401 365.039V365.039Z" fill="white"/>
<path d="M260.352 371.934H258.69C258.366 371.934 258.117 371.762 258.136 371.552L258.92 364.466C258.92 364.275 259.225 364.103 259.55 364.103H261.212C261.536 364.103 261.785 364.275 261.766 364.466L260.982 371.552C260.963 371.762 260.677 371.934 260.352 371.934Z" fill="#407BFF"/>
<path d="M299.316 371.934H297.674C297.349 371.934 297.1 371.762 297.12 371.552L297.884 364.466C297.884 364.275 298.208 364.103 298.533 364.103H300.176C300.5 364.103 300.768 364.275 300.729 364.466L299.966 371.552C299.87 371.762 299.66 371.934 299.316 371.934Z" fill="#407BFF"/>
<g style="mix-blend-mode:multiply">
<path d="M258.9 695.393C287.16 695.393 310.069 693.734 310.069 691.688C310.069 689.641 287.16 687.982 258.9 687.982C230.641 687.982 207.732 689.641 207.732 691.688C207.732 693.734 230.641 695.393 258.9 695.393Z" fill="#F5F5F5"/>
</g>
<path d="M290.072 686.454C281.018 683.818 270.972 680.438 264.898 676.904C264.726 676.789 264.535 676.732 264.363 676.637V635.648H282.68C284.07 635.566 285.377 634.955 286.332 633.942C287.288 632.928 287.82 631.588 287.82 630.195C287.82 628.802 287.288 627.462 286.332 626.448C285.377 625.435 284.07 624.824 282.68 624.742H264.459V437.906H253.457V624.742H235.255C234.511 624.698 233.767 624.806 233.067 625.061C232.367 625.315 231.727 625.709 231.185 626.22C230.643 626.731 230.212 627.347 229.917 628.03C229.621 628.714 229.469 629.45 229.469 630.195C229.469 630.94 229.621 631.676 229.917 632.36C230.212 633.043 230.643 633.66 231.185 634.17C231.727 634.681 232.367 635.075 233.067 635.33C233.767 635.584 234.511 635.692 235.255 635.648H253.457V676.579C253.285 676.579 253.113 676.732 252.941 676.847C246.772 680.438 236.802 683.818 227.748 686.397C227.137 686.582 226.612 686.979 226.268 687.518C225.924 688.057 225.785 688.701 225.875 689.333C225.965 689.966 226.279 690.545 226.759 690.966C227.239 691.388 227.854 691.623 228.493 691.63H289.327C289.937 691.589 290.515 691.339 290.964 690.923C291.412 690.506 291.705 689.949 291.792 689.343C291.879 688.738 291.756 688.12 291.443 687.594C291.13 687.069 290.646 686.666 290.072 686.454Z" fill="#E0E0E0"/>
<path d="M292.879 418.882H224.96C219.496 418.882 215.066 423.312 215.066 428.776V448.965C215.066 454.429 219.496 458.858 224.96 458.858H292.879C298.344 458.858 302.773 454.429 302.773 448.965V428.776C302.773 423.312 298.344 418.882 292.879 418.882Z" fill="#407BFF"/>
<path d="M224.329 458.877V462.354C224.329 465.219 227.443 467.549 231.263 467.549H286.653C290.473 467.549 293.586 465.219 293.586 462.354V458.877H224.329Z" fill="#407BFF"/>
<path opacity="0.3" d="M224.329 458.877V462.354C224.329 465.219 227.443 467.549 231.263 467.549H286.653C290.473 467.549 293.586 465.219 293.586 462.354V458.877H224.329Z" fill="white"/>
</svg>
